<?xml version="1.0" encoding="UTF-8"?>
<!DOCTYPE svg PUBLIC "-//W3C//DTD SVG 1.1//EN" "http://www.w3.org/Graphics/SVG/1.1/DTD/svg11.dtd">
<!-- Creator: CorelDRAW X7 -->
<svg xmlns="http://www.w3.org/2000/svg" xml:space="preserve" width="2480px" height="3508px" version="1.1" style="shape-rendering:geometricPrecision; text-rendering:geometricPrecision; image-rendering:optimizeQuality; fill-rule:evenodd; clip-rule:evenodd"
viewBox="0 0 2480 3507"
 xmlns:xlink="http://www.w3.org/1999/xlink"
 xmlns:dc="http://purl.org/dc/elements/1.1/"
 xmlns:cc="http://creativecommons.org/ns#"
 xmlns:rdf="http://www.w3.org/1999/02/22-rdf-syntax-ns#"
 xmlns:svg="http://www.w3.org/2000/svg">
 <defs>
  <style type="text/css">
   <![CDATA[
    .fil0 {fill:white;fill-rule:nonzero}
   ]]>
  </style>
 </defs>
 <g id="Ebene_x0020_1">
  <metadata id="CorelCorpID_0Corel-Layer"/>
  <g id="g10">
   <g id="g12">
    <path id="path14" class="fil0" d="M1580 1795c0,-3 0,-4 0,-6l3 0 0 3 0 0c1,-2 4,-4 7,-4 3,0 8,2 8,9l0 13 -4 0 0 -12c0,-4 -1,-6 -5,-6 -2,0 -4,1 -5,3 0,1 0,2 0,2l0 13 -4 0 0 -15zm-16 0c0,-2 0,-4 0,-6l3 0 0 4 1 0c1,-3 3,-5 5,-5 1,0 1,1 1,1l0 3c0,0 0,0 -1,0 -3,0 -4,2 -5,5 0,0 0,1 0,2l0 11 -4 0 0 -15zm-10 2c0,-2 -1,-6 -5,-6 -4,0 -5,4 -6,6l11 0zm-4 10c3,0 5,0 6,-1l1 3c-2,0 -4,1 -7,1 -6,0 -10,-4 -10,-10 0,-7 3,-12 9,-12 7,0 9,6 9,10 0,1 0,2 0,2l-15 0c0,5 4,7 7,7zm-46 3l0 -15c0,-3 0,-4 0,-6l3 0 0 3 1 0c1,-2 3,-4 6,-4 3,0 5,2 6,5l0 0c1,-2 1,-2 2,-3 1,-1 3,-2 5,-2 2,0 7,2 7,9l0 13 -4 0 0 -12c0,-4 -2,-6 -5,-6 -2,0 -3,1 -4,3 0,0 0,1 0,2l0 13 -4 0 0 -13c0,-3 -1,-5 -4,-5 -3,0 -4,1 -5,3 0,1 0,1 0,2l0 13 -4 0zm-37 -15c0,-3 0,-4 0,-6l3 0 0 3 0 0c2,-2 3,-4 7,-4 3,0 5,2 6,5l0 0c0,-2 1,-2 2,-3 1,-1 3,-2 5,-2 2,0 6,2 6,9l0 13 -3 0 0 -12c0,-4 -2,-6 -5,-6 -2,0 -4,1 -4,3 0,0 0,1 0,2l0 13 -4 0 0 -13c0,-3 -2,-5 -4,-5 -3,0 -4,1 -5,3 0,1 0,1 0,2l0 13 -4 0 0 -15zm-23 4c0,5 3,8 7,8 3,0 6,-3 6,-8 0,-3 -2,-8 -6,-8 -5,0 -7,4 -7,8l0 0zm17 0c0,8 -6,11 -11,11 -5,0 -10,-4 -10,-11 0,-6 5,-11 11,-11 6,0 10,5 10,11zm-41 2c0,1 0,1 0,2 1,2 3,4 5,4 4,0 7,-3 7,-8 0,-4 -2,-8 -6,-8 -3,0 -5,2 -6,5 0,1 0,1 0,2l0 3zm-4 -12l3 0 0 3 0 0c2,-2 4,-4 8,-4 5,0 9,5 9,11 0,7 -5,11 -10,11 -3,0 -5,-1 -6,-3l0 0 0 11 -4 0 0 -22c0,-3 0,-5 0,-7zm-16 6c0,-2 0,-4 0,-6l3 0 1 4 0 0c1,-3 3,-5 5,-5 1,0 1,1 1,1l0 3c0,0 0,0 -1,0 -2,0 -4,2 -5,5 0,0 0,1 0,2l0 11 -4 0 0 -15zm-22 4c0,5 2,8 6,8 3,0 6,-3 6,-8 0,-3 -2,-8 -6,-8 -5,0 -6,4 -6,8l0 0zm16 0c0,8 -5,11 -10,11 -6,0 -10,-4 -10,-11 0,-6 4,-11 10,-11 6,0 10,5 10,11zm-36 11l-10 -29 4 0 5 14c1,4 2,7 3,11l0 0c1,-4 2,-7 3,-11l5 -14 4 0 -10 29 -4 0zm-12 -11l-11 0 0 -2 11 0 0 2zm-21 2l0 -4c0,-1 0,-1 0,-2 -1,-2 -2,-4 -5,-4 -4,0 -6,3 -6,8 0,4 2,8 6,8 2,0 4,-2 5,-4 0,-1 0,-2 0,-2l0 0zm4 -12c0,1 0,3 0,6l0 12c0,4 -1,7 -3,9 -2,2 -5,2 -7,2 -3,0 -6,0 -7,-1l1 -3c1,1 3,1 6,1 4,0 6,-2 6,-7l0 -2 0 0c-1,2 -3,3 -6,3 -5,0 -9,-4 -9,-10 0,-7 5,-11 9,-11 4,0 6,2 7,4l0 0 0 -3 3 0zm-33 6c0,-2 0,-4 0,-6l3 0 0 4 1 0c1,-3 3,-5 5,-5 1,0 1,1 1,1l0 3c0,0 0,0 -1,0 -3,0 -4,2 -5,5 0,0 0,1 0,2l0 11 -4 0 0 -15zm-8 9c0,2 0,4 0,6l-3 0 0 -4 0 0c-1,2 -3,4 -7,4 -3,0 -7,-2 -7,-9l0 -12 4 0 0 11c0,4 1,7 4,7 3,0 5,-2 5,-4 0,0 1,-1 1,-1l0 -13 3 0 0 15zm-39 -3c0,1 0,1 0,2 1,2 3,4 6,4 4,0 6,-3 6,-8 0,-4 -2,-8 -6,-8 -3,0 -5,2 -6,5 0,0 0,1 0,2l0 3zm-4 9c0,-2 0,-4 0,-6l0 -25 4 0 0 13 0 0c1,-2 4,-4 7,-4 5,0 9,5 9,11 0,7 -5,11 -10,11 -2,0 -5,-1 -6,-4l0 0 -1 4 -3 0zm-25 -15c0,-3 0,-4 0,-6l3 0 0 3 0 0c1,-2 4,-4 7,-4 3,0 7,2 7,9l0 13 -3 0 0 -12c0,-4 -2,-6 -5,-6 -2,0 -4,1 -5,3 0,1 0,2 0,2l0 13 -4 0 0 -15zm-10 2c0,-2 -1,-6 -5,-6 -4,0 -6,4 -6,6l11 0zm-4 10c3,0 4,0 6,-1l0 3c-1,0 -3,1 -6,1 -7,0 -11,-4 -11,-10 0,-7 4,-12 10,-12 7,0 9,6 9,10 0,1 0,2 0,2l-15 0c0,5 3,7 7,7zm-17 3l-4 0 0 -31 4 0 0 31zm-22 -12l0 0c0,0 1,-1 2,-2l6 -7 4 0 -8 8 9 13 -4 0 -7 -10 -2 2 0 8 -4 0 0 -31 4 0 0 19zm-16 12c-6,0 -10,-4 -10,-11 0,-6 4,-11 11,-11 2,0 4,1 5,2l-1 2c-1,0 -2,-1 -4,-1 -5,0 -8,4 -8,8 0,5 4,8 8,8 2,0 3,-1 4,-1l1 3c-1,0 -3,1 -6,1zm-19 -13c0,-2 -1,-6 -5,-6 -4,0 -5,4 -6,6l11 0zm-4 10c3,0 5,0 6,-1l1 3c-2,0 -4,1 -7,1 -7,0 -10,-4 -10,-10 0,-7 3,-12 9,-12 7,0 9,6 9,10 0,1 0,2 0,2l-15 0c0,5 4,7 7,7l0 0zm-21 -10c0,-4 0,-9 0,-12l0 0c-1,3 -2,7 -4,10l-5 14 -3 0 -4 -13c-2,-4 -3,-8 -4,-11l0 0c0,3 0,8 0,12l-1 13 -4 0 2 -29 5 0 5 14c1,3 2,6 3,9l0 0c1,-3 2,-6 3,-9l5 -14 5 0 2 29 -4 0 -1 -13z"/>
    <path id="path16" class="fil0" d="M1587 1702l0 13 11 0 0 10 -11 0 0 15c0,6 1,9 6,9 2,0 4,-1 5,-1l0 11c-2,1 -6,1 -10,1 -5,0 -9,-1 -11,-4 -2,-3 -4,-7 -4,-13l0 -18 -6 0 0 -10 6 0 0 -10 14 -3zm-59 45c3,1 9,3 13,3 5,0 6,-1 6,-3 0,-3 -1,-4 -7,-5 -9,-3 -14,-8 -13,-14 0,-8 7,-14 19,-14 6,0 11,1 14,2l-3 10c-2,-1 -7,-3 -11,-3 -3,0 -5,2 -5,4 0,2 2,3 8,5 9,3 13,7 13,14 0,8 -7,14 -21,14 -6,0 -12,-1 -16,-3l3 -10zm-38 -32l12 0 1 8 0 0c2,-7 8,-9 13,-9 1,0 2,0 3,0l0 13c-1,0 -2,0 -4,0 -6,0 -9,3 -10,7 0,1 0,2 0,3l0 22 -15 0 0 -29c0,-7 0,-12 0,-15l0 0zm-45 22c0,8 4,13 10,13 6,0 10,-5 10,-13 0,-7 -3,-13 -10,-13 -7,0 -10,6 -10,13zm35 -1c0,16 -12,24 -25,24 -14,0 -25,-8 -25,-23 0,-14 9,-23 26,-23 14,0 24,9 24,22zm-79 -11l-5 0 0 -10 5 0 0 -2c0,-5 2,-12 6,-16 4,-3 9,-4 13,-4 3,0 6,0 8,1l-1 11c-1,0 -2,-1 -4,-1 -5,0 -7,4 -7,8l0 3 9 0 0 10 -9 0 0 34 -15 0 0 -34zm-44 22c2,1 8,3 13,3 4,0 6,-1 6,-3 0,-3 -1,-4 -7,-5 -10,-3 -14,-8 -14,-14 0,-8 8,-14 19,-14 6,0 11,1 14,2l-2 10c-3,-1 -7,-3 -11,-3 -4,0 -6,2 -6,4 0,2 2,3 8,5 9,3 13,7 13,14 0,8 -6,14 -20,14 -7,0 -12,-1 -16,-3l3 -10zm-24 -15c1,-3 -1,-9 -8,-9 -7,0 -9,5 -10,9l18 0zm-4 18c5,0 9,-1 13,-2l2 9c-5,2 -11,3 -17,3 -16,0 -25,-9 -25,-23 0,-10 6,-23 24,-23 16,0 21,12 21,22 0,2 0,5 0,5l-32 0c1,6 7,9 14,9zm-52 -16c0,-1 0,-2 0,-2 -1,-4 -4,-8 -9,-8 -7,0 -11,6 -11,13 0,7 4,12 11,12 4,0 8,-3 9,-8 0,-1 0,-2 0,-3l0 -4zm15 -40l0 52c0,5 0,11 0,13l-13 0 0 -7 -1 0c-3,6 -9,8 -15,8 -11,0 -21,-8 -21,-23 0,-14 10,-23 22,-23 6,0 11,2 13,5l0 0 0 -25 15 0zm-105 35c0,-6 0,-10 0,-14l12 0 1 6 0 0c2,-2 7,-7 15,-7 9,0 17,5 17,20l0 25 -14 0 0 -23c0,-7 -3,-11 -8,-11 -4,0 -7,3 -8,6 0,1 0,2 0,3l0 25 -15 0 0 -30zm-26 9c-9,0 -15,2 -15,7 0,4 3,5 6,5 4,0 7,-2 8,-5 0,-1 1,-2 1,-3l0 -4zm1 21l-1 -4 0 0c-3,3 -8,5 -14,5 -10,0 -15,-6 -15,-13 0,-12 10,-18 28,-18l0 0c0,-2 -1,-6 -9,-6 -5,0 -10,2 -13,4l-3 -9c4,-2 10,-4 19,-4 15,0 21,8 21,19l0 15c0,5 0,9 0,11l-13 0zm-78 -61l14 0 0 49 28 0 0 12 -42 0 0 -61z"/>
    <path id="path18" class="fil0" d="M934 1678c0,0 -37,3 -41,7 -4,4 -7,42 -7,42 0,0 28,42 62,55 1,0 31,-26 31,-26 0,0 -46,-17 -45,-78z"/>
    <path id="path20" class="fil0" d="M883 1787c2,22 8,34 8,34 0,0 18,-12 47,-32 0,0 -23,-15 -33,-23 -9,-8 -16,-18 -21,-23 0,3 -3,23 -1,44z"/>
    <g>
     <path id="path22" class="fil0" d="M1008 1829c18,-1 20,-3 20,-3 0,0 4,-10 8,-30 0,0 -16,7 -52,5 -17,-1 -33,-5 -35,-6 -8,5 -44,31 -44,31 0,0 32,8 103,3l0 0zm0 0l0 0 0 0z"/>
    </g>
    <path id="path24" class="fil0" d="M1040 1761c0,0 2,-18 1,-35 0,-16 -1,-30 -2,-29 -16,30 -45,56 -45,56 16,10 46,8 46,8z"/>
    <path id="path26" class="fil0" d="M985 1749c0,0 15,-17 29,-33 14,-16 24,-33 24,-33 -33,-9 -95,-6 -95,-6 4,60 42,72 42,72z"/>
    <path id="path28" class="fil0" d="M988 1760l-31 27c35,11 71,2 80,0 1,-6 2,-12 3,-18 -26,2 -52,-9 -52,-9z"/>
   </g>
  </g>
 </g>
</svg>
